<svg version="1.1" id="Слой_1" xmlns="http://www.w3.org/2000/svg" xmlns:xlink="http://www.w3.org/1999/xlink" x="0px" y="0px" viewBox="0 0 640 480" xml:space="preserve" class="canada-map">
        <g>
        <defs>
        <rect id="SVGID_1_" width="640" height="480" />

                </defs>
        <clipPath id="SVGID_2_">
        <use xlink:href="#SVGID_1_" style="overflow:visible" />

                </clipPath>
        <path class="st0 map-location" data-location="Nunavut" title="Nunavut"
              d="M315,114.7c0,0.2,0.1,0,0.1-0.3C315,114.5,315,114.5,315,114.7" />

        <path class="st1 map-location" data-location="Northwest Territories" title="Northwest Territories"
              d="M203.4,134.6l-1.5,4.1l4.3,0.6l0.8-1.5h2.1l1.7,1.9l2.1-0.6l-0.6-4.3l1.7-3c0,0,3.2-0.2,4.1-0.4
 c0.9-0.2,2.6-2.8,2.6-2.8l5.6-2.3c0,0,1.9-2.1,2.8-2.3c0.9-0.2,2.8,2.4,5.1,0c2.3-2.4-1.1-3.4-1.1-3.4V116l-4.1-0.9l-0.4,1.5
 l-3.2-0.9l-2.8-0.4l1.7-2.6l-3.4-4.1l-6.8-1.9c0,0-0.8,1.1-0.8,2.3s0,3-0.6,4.9c-0.6,1.9-3.8,2.1-4.3,2.6c-0.6,0.6-2.3,3.8-3.2,4.7
 c-0.9,0.9-1.7,0.2-3.2,1.5c-1.5,1.3-2.1,3.4-2.4,4.7c-0.4,1.3,1.5,3.8,1.9,4.3C201.9,132.2,203.4,134.6,203.4,134.6" />

        <path class="st1 map-location" data-location="Northwest Territories" title="Northwest Territories"
              d="M235.9,168.8l0.4-3h4.1l2.3,5.6h1.5l6.9-32c-0.5-0.3-1.2-0.4-1.8,0.1c-1.3,1.1-1.9,2.1-3.6,1.5
 c-1.7-0.6-4.1,0.4-4.7-1.1c-0.6-1.5,3.6-1.5,3.2-3.4c-0.4-1.9-0.9-3-2.4-3.8c-1.5-0.8-1.9,0.6-2.4,1.7c-0.6,1.1-1.7,2.6-4,1.1
 c-2.3-1.5-1.7-1.9,1.1-3.6c2.8-1.7,0.4-4,0.4-4s-5.1-0.2-5.3,0.8c-0.2,0.9-4.1,0.6-4.1,0.6l-4.1,3.2c0,0,0.4,2.1,0,3
 c-0.4,0.9-2.6,0.9-2.6,0.9l-1.5,2.6l3,0.9c0,0,0.4,2.6,0.9,2.6c0.6,0,6,0.2,6,0.2l1.1,2.8l-2.6,1.9l-5.6-0.2l-4.1,0.2l2.6,2.8
 c0,0,0.6,1.9,1.5,1.9c0.9,0,7,0.4,7.9,0.8c0.9,0.4,5.5,1.7,5.8,2.3s5.5,1.9,5.1,4.9c-0.4,3-1.7,3.6-3.2,2.8
 c-1.5-0.8-4.9-2.4-4.9-2.4s-5.6-0.8-6.6-0.9c-0.9-0.2-4.9-1.3-4.9-1.3s-3.4,0.4-3.2,1.5c0.2,1.1,1.3,2.8,1.5,3.8
 c0,0.2,0.1,0.4,0.1,0.6h7.6L235.9,168.8z" />

        <path class="st0 map-location" data-location="Nunavut" title="Nunavut"
              d="M266.5,164c-0.9-1.1,0.2-4.3-1.5-4.7c-1.7-0.4-3-1.1-2.8-1.7c0.2-0.6,3.4-0.9,3.4-3.8s-2.3-4-2.3-7
 c0-3,0.4-6.2,0.2-9.2c-0.2-3-0.8-5.3-2.8-4.1c-2.1,1.1-2.8,3.6-2.8,5.5c0,1.9,1.7,4.7,1.3,6.8c-0.4,2.1,2.6,4.5-0.8,4.7
 c-3.4,0.2-4.5,1.7-5.6-0.2c-1.1-1.9-1.3-6.4-0.8-8.3c0.3-1.1-0.2-2.1-0.9-2.5l-6.9,32h-1.5l-2.3-5.6h-4.1l-0.4,3l-8.7-4.5h-7.6
 c0.1,1.2,0.1,3.3,0.1,3.3s8.8,0.9,8.8,1.7c0,0.8,0,7.9,0.9,8.3c0.9,0.4,2.6,1.1,6,0.9c3.4-0.2,11.3,0,11.3,0l4.5-1.3l1.3-2.3
 c0,0,2.1-2.3,3.2-2.1c1.1,0.2,0.4,4.3,2.6,4.9c2.3,0.6,4,1.3,4,1.3s2.6,3,4.9,2.8c2.3-0.2,4.7-1.7,4.7-1.7s-2.1-1.3-4.3-2.6
 c-2.3-1.3-1.9-3.4-1.3-4.7c0.6-1.3,3-0.8,4.3-1.1c1.3-0.4,3.4-1.9,3-3.2c-0.4-1.3-2.4-4.9-3.8-4.3
 C268.7,164.7,267.4,165.1,266.5,164" />

        <path class="st0 map-location" data-location="Nunavut" title="Nunavut"
              d="M345.3,206c0.9-1.4-1-4-1-4c-0.9-0.2-3.3,0.5-2.1,2.6C343.4,206.7,344.5,207.4,345.3,206" />

        <path class="st0 map-location" data-location="Nunavut" title="Nunavut"
              d="M360.1,227.1c1.6-1.4,3.6-0.7,1.9-2.9c-1.7-2.3-2.9-3.1-4.7-3.3c-1.7-0.2-1.4-0.2-3.1-1.6
 c-1.7-1.4-2.6,1.2-4,0c-1.4-1.2-0.9-1.6-1.9-1.6c-1,0-2.6,3-3.3,1c-0.7-1.9,0-4.3-1.7-4.3c-1.7,0,0,0.5,0,0.5
 c-0.7,0-0.7,0.9-0.7,4.3s-1.7,7.8-0.2,8.3c1.6,0.5,1.7,2.1,1.2,2.6c-0.5,0.5-3,2.8-3,2.8s0.5,2.8,2.6,1.9c2.1-0.9,1.6-3.3,3.1-1.6
 c1.6,1.7-0.5,4.3,1.4,6.2c1.9,1.9,1.9,0.5,2.3-2.3c0.3-2.8,0.9-2.6,2.6-3.6c1.7-1,2.1-5.2,1.6-6.4S358.5,228.5,360.1,227.1" />

        <path class="st0 map-location" data-location="Nunavut" title="Nunavut"
              d="M356.1,131.7c-1.6,0.2-2.6,0.3-3.3,1.2c-0.7,0.9-1,2.6,0.9,2.8c1.9,0.2,3.3,1.7,3.3,2.9c0,1.2,1.6,2.6,1.6,2.6
 s0,0.5-1.2,1c-1.2,0.5-1.9,0.9-3.5-0.2c-1.6-1-4-1.4-4-1.4s-2.1,1.6-2.1,2.6c0,1-1.7,1.9-1.7,1.9s-1.2-2.1-2.1-2.9
 c-0.9-0.9-1.6-1-0.7-3.1c0.9-2.1,1.2-3.6,1.2-4.5s0.9-1.9-0.5-3.3c-1.4-1.4-2.3-2.4-2.8-2.1c-0.5,0.3-1.7-0.7-1.7-1.9
 c0-1.2-0.3-2.1-1.9-1.4c-1.6,0.7-2.8-0.2-3.8,1.2c-1,1.4-1.6,1.9,0,3.1s2.6,1.9,2.4,3.5c-0.2,1.6,0,2.4-1.4,2.8
 c-1.4,0.3-1.9,1.4-3,0.3c-1-1,0.2-3.1-1.7-1.7c-1.9,1.4-4.2,1.9-1.4,3.5c2.8,1.6,5.2,1.4,5.7,1.4c0.5,0,0.9,0.5,0.9,1.7
 c0,1.2,0,1.7,1.2,2.3c1.2,0.5,0.9,2.1-0.3,2.4c-1.2,0.3-3.1-1.4-3.1-1.4s-2.1,1.9-0.5,2.6c1.6,0.7,3.1,0.3,3.1,2.1
 c0,1.7-1.2,1.7,0.2,3.1c1.4,1.4,3.3-0.9,1.7,1.7c-1.6,2.6,1.2,2.4-1.6,2.6c-2.8,0.2-2.9-0.3-3.5-0.7c-0.5-0.3-1.9,0.2-2.6,0.9
 c-0.7,0.7,0.2,1-1.9,0.7c-2.1-0.3-1.9-2.6-3.8-0.2c-1.9,2.4-4.3-1.2-2.9,1.7c1.4,3,0.3,2.4,2.9,3c2.6,0.5,1.7,0.9,3.3,0.2
 c1.6-0.7,2.6-1,3,0c0.3,1-0.3,0.7,1.9,1c2.3,0.3,4.3-0.2,6.6-0.3c2.3-0.2,1.9-0.2,2.8-2.1c0.9-1.9,1.2-2.4,2.4-1.2
 c1.2,1.2,4.9,4.5,6.9,2.9c2.1-1.6,2.8-1.7,4.2-1.7s4.5,3.1,2.8,0c-1.7-3.1-1.9-1-2.9-3.3c-1-2.3-3-2.1-0.7-3.5
 c2.3-1.4,1.9-0.7,3.6,0.5c1.7,1.2,1.2,2.1,4,2.4c2.8,0.3,3.1,0.9,4.2,1c1,0.2,9.5,8.2,9.5,8.2s1.4,0,2.6,0.3
 c1.2,0.3,2.3,0.7,2.4,1.6c0.2,0.9-0.3,1.6,2.1,1.6c2.4,0,1.9-0.7,2.4,0c0.5,0.7,1.4,1.7,1.9,2.3c0.5,0.5,2.1,0.5,2.1,1
 c0,0.5,1.9,2.6,3,2.9c1,0.3,1.6,1.2,1.6,2.3c0,1,0.3,3.1,0.3,3.1l0.2,2.6c0,0-0.3,1.6-0.3,2.4c0,0.9,1-0.2-0.3,2.4
 c-1.4,2.6-2.4,5.2-2.4,5.9s-1.2,0.5-0.7,1.2c0.5,0.7,1,0.5,2.4,0.7c1.4,0.2,2.3,0.5,2.3,0.5l0.7,2.3c0.3,1.4,1.7,3.3-1,3.8
 c-2.8,0.5-2.8-1.4-3.6,0.3c-0.9,1.7-1,3.6,0.7,3.6c1.7,0,2.8,2.4,3.8,1.9c1-0.5,2.1-3.3,4-1.9c1.9,1.4,1,1.2,2.1,3.8
 c1,2.6,4.5,1.7,6.1,1.4c1.6-0.3,1.9,2.6,1.9,2.6s2.8-3.5,4.3-0.7c1.6,2.8-3.3,2.1-1.4,3.8c1.9,1.7,3,2.3,4.5,1
 c1.6-1.2,0,0.7,2.4,1.6c2.4,0.9,1.2-0.5,3.8-1.6c2.6-1,0.2,1.4,2.8,1.4c2.6,0,7.1,2.3,8.7,1c1.6-1.2,7.3-0.5,7.3-0.5l-1-1.9
 c0,0-5.2-2.3-5.9-2.3c-0.7,0-14.4-4.5-14.2-6.8c0.2-2.3,2.3-2.3,4.5-3.1c2.3-0.9,3.5-1,4.5-0.2c1,0.9,3.5,1.4,4.7,1
 c1.2-0.3,5.2,1.2,6.3,0.3c1-0.9-1.2-3.8-2.4-4.7c-1.2-0.9-0.2-2.8-2.6-3.8c-2.4-1-4-0.7-4-1.9c0-1.2-0.5-2.1-2.8-1.9
 c-2.3,0.2-1.7,1.6-4-0.3c-2.3-1.9-0.3-2.6-3.3-2.8c-3-0.2-3.3,0.3-4.7-1.2c-1.4-1.6-1-1.9-2.6-3.1c-1.6-1.2-1.4-0.9-2.8-2.1
 c-1.4-1.2-1.9-1-1.9-2.3c0-1.2,0.5-1.6,1.2-2.3c0.7-0.7,1.4-2.6,1.4-3.1c0-0.5,0.5-1.2,1.6-1.4c1-0.2,3.1-0.5,3.6-0.3
 c0.5,0.2,1.7,0,1.9,0.5c0.2,0.5-0.5,1,0.9,1c1.4,0,1.9,0.3,2.6-0.3c0.7-0.7,1-1.4,2.1-1.4h2.3h2.3c0,0,0.9,0.2,0.9,0.7
 c0,0.5-0.3,0.7,0,1.7c0.3,1,0.9,1.6,0.9,1.6s2.4,2.1,3.1,2.1c0.7,0,2.1,1.9,1.2-1.2c-0.9-3.1-1.9-4-2.4-4.5
 c-0.5-0.5-0.5-0.7-0.2-1.6c0.3-0.9,0.5,1,0.3-0.9c-0.2-1.9-0.3-2.4-0.3-2.4s0-3-1.7-2.4c-1.7,0.5-1.2,1.6-3.8,0.3
 c-2.6-1.2-5.9-1-5.9-1s-1.7-3-2.3-3.3c-0.5-0.3-0.3-0.7-1.7-0.3c-1.4,0.3-2.1,0.3-3.3,0.3h-3.5c-0.7,0-1.6,0.5-2.4,0
 c-0.9-0.5,0.2-1.6-3-1.6c-3.1,0-3.5,0.3-4.3-0.2c-0.9-0.5-1-0.3-1.7-1.2c-0.7-0.9-2.4-2.1-2.4-2.1l-1.6-3.5c0,0,0.2-2.1-1.7-2.1
 s-4.7,1.2-5-0.3c-0.3-1.6,0.3-5.9,0.3-5.9l1-3.6l1.2-3.1l-2.4-1.7l-1.7,3l-2.3,3.3c0,0,1.4,3.6,1.4,4.2c0,0.5-2.3,2.4-2.3,2.4
 l-0.9-3.5l-2.1-1c0,0-1.7,0.2-2.1-0.3c-0.3-0.5-0.9-1.9-1.7-2.1c-0.9-0.2-0.3-2.1-0.3-2.1s4.7-4.7,3.1-5.9c-1.6-1.2-2.9-2.8-4.3-1
 c-1.4,1.7-1,5-1.2,6.2c-0.2,1.2-1.9,1.4-2.8,1.4s-4.3-0.5-4.3-0.5s-0.2-1.6-1-1.6c-0.9,0-2.6-0.2-2.4-1c0.2-0.9,1-0.7-0.9-1
 c-1.9-0.3-2.4-0.3-2.4-1c0-0.7,0.3-1.2,0.3-2.6s0.7-1.6,0.2-2.8c-0.5-1.2-0.9-2.1-1.9-2.4C358.2,132.2,357.6,131.5,356.1,131.7" />

        <path class="st0 map-location" data-location="Nunavut" title="Nunavut"
              d="M322.6,153.4c3,0,1.6-0.2,2.6,0.7c1,0.9,2.6,0.9,5.2,0.9s1-1.2,1.7-3.5c0.7-2.3-0.9,0-3-1.2
 c-2.1-1.2,0,0-1.7-1.6c-1.7-1.6-1.6-2.4-1.6-4.9c0-2.4-0.7-1-1.7-2.4c-1-1.4,0-1.6,0-2.6c0-1,0.7-1.6,0.7-2.8c0-1.2,0-2.4,0.2-4
 c0.2-1.6,1.4-1.6,2.6-2.4c1.2-0.9,0.7-2.4,0.2-3.6l-0.3-0.2l-3.1,1.4h-0.7c-0.7,0-0.9,0.5-1.9,1.4c-1,0.9-0.3,0.5-1,1.6
 c-0.7,1-1,0.9-2.1,2.1s0,0.5,1.4,2.1c1.4,1.6,0,1-0.3,1.9c-0.3,0.9-0.7,1.2-1,2.3c-0.3,1-0.2,1,0,2.3c0.2,1.2,0,0.7,0.2,2.3
 c0.2,1.6-0.7,0.9-2.1,2.1c-1.4,1.2-0.3,1.4,0.3,2.1c0.7,0.7,1,0.9,1.4,2.1c0.3,1.2-0.5,1.7-0.7,2.9
 C317.6,153.4,319.6,153.4,322.6,153.4" />

        <path class="st0 map-location" data-location="Nunavut" title="Nunavut"
              d="M311.3,131.5c-1.6-4.9-1.4-5.2-2.1-5.2c-0.7,0-2.1,0.2-2.1,0.2s-0.9,0.5-1.4,0.9c-0.5,0.3,0.3,1.2-0.5,0.3
 c-0.9-0.9-1-1.7-1-1.7s-0.9-0.2-1.9-0.2c-1,0-2.6,1-2.6,1c-0.5,0.3-0.7,1.4-0.5,1.9c0.2,0.5,1.4,1.4,0,2.6
 c-1.4,1.2-2.1,0.5-1.6,2.3c0.5,1.7,0.5,1,0.5,2.6v2.8v3c0,2.3-0.2,2.3,0.2,3.1c0.3,0.9,1.2,1,0.7,2.1c-0.5,1,2.3,1.7,2.8,1.2
 c0.5-0.5,0.2-0.5-0.2-2.9c-0.3-2.4,0.7-2.4-0.5-2.9s-2.4,0.3-1.6-0.9c0.9-1.2,0.9-2.1,2.3-2.4c1.4-0.3,1.2-0.5,2.4-0.2
 c1.2,0.3,0.5,1,2.3,0.3c1.7-0.7,2.1,1.9,2.3-1.4c0.2-3.3-0.7-3.8,0.2-4.5c0.9-0.7,1.6-1.2,1.6-1.2S312.9,136.4,311.3,131.5" />

        <path class="st0 map-location" data-location="Nunavut" title="Nunavut"
              d="M276.8,142.6c0.7,0.3,1.4,0.9,2.6,2.1c1.2,1.2,0.3,1,1.2,2.3c0.9,1.2,2.1,1.9,2.6,2.6c0.5,0.7,0.2,1.9,1.7,4.9
 c1.6,2.9,2.1,0,2.4-1c0.3-1-1.2-1.9-1.2-3.1c0-1.2,1.7-2.3,2.6-1.7c0.9,0.5,1,2.1,1,2.1s2.6-0.2,2.3-1.2c-0.3-1,0.3-2.6,0.9-2.8
 c0.5-0.2,0.5-0.7,0.5-2.3s-0.5-0.5-2.6-1.4c-2.1-0.9-0.9-1.4-1-2.8c-0.2-1.4-2.8-1.4-2.8-1.4l1.4-3.1l1-2.6l-1.9-1.4l-3.5-0.9
 c0,0,1-0.3-0.2-0.3s-1.7,0.3-1,1.2c0.7,0.9,0.9,0.9-0.2,1.7c-1,0.9-0.5,0.5,1,2.1c1.6,1.6,0,0.3-0.3,2.1c-0.3,1.7,0.2,1.4-0.7,3.3
 c-0.9,1.9-2.8-0.2-4-0.2c-1.2,0-1.2-0.2-1.7-1.2c-0.5-1,0.5-3.5-1.2-3.6c-1.7-0.2-1.6,1.6-1.7,4.3
 C273.8,143,276.1,142.3,276.8,142.6" />

        <path class="st0 map-location" data-location="Nunavut" title="Nunavut"
              d="M287.2,179.1c-1,0-1.4-0.9-2.3,0c-0.9,0.9-1.9,1-1.6,2.4c0.3,1.4,0.2,1.9,2.3,1.9c2.1,0,2.9-0.5,3.5,0.7
 c0.5,1.2,0.7,1.9,1.9,1.9c1.2,0,1,0.3,1.9,0.7c0.9,0.3,2.3,0.5,2.8-1c0.5-1.6,2.3,0.5,0.7-2.4c-1.6-2.9-1.7-2.3-2.1-3.5
 c-0.3-1.2,0.3-0.9-0.3-2.1c-0.7-1.2-1-1.4-2.4-1.7c-1.4-0.3-1.2-1.2-2.6-1c-0.7,0.1-0.7,1.9-0.5,2.4
 C288.6,177.9,288.2,179.1,287.2,179.1" />

        <path class="st0 map-location" data-location="Nunavut" title="Nunavut"
              d="M302.1,174.2c2.1,0.7,1.7,0.7,3.1-0.7c1.4-1.4,0.5-1.4,2.3-2.6c1.7-1.2,2.6-1,1.4-2.4
 c-1.2-1.4-2.1-0.9-1.4-2.3c0.7-1.4,1.6-1,0.3-2.1c-1.2-1-2.6-1.2-1.9-2.6c0.7-1.4,0.2-4,0.2-4.5c0-0.5-1.2-2.4-2.3-3.3
 c-1-0.9-2.4-2.1-2.4-2.1s-1.7-1.4-2.1,0.3c-0.3,1.7,0,2.4-0.7,3.8c-0.7,1.4-0.9,1.4-1.6,1.4s-1.7,1.2-1.7,1.2
 c-0.7,0.9-1.4,1.2-0.5,3c0.9,1.7,1.4,1.6,1.4,2.6c0,1,0.5,0.7-0.5,1.7c-1,1-1.7,0-1.6,1.6c0.2,1.6,0.5,1.2,0.5,2.8
 c0,1.6-1,2.3,0.7,2.4c1.7,0.2,2.1,0.5,3.3,0.2c1.2-0.3,2.3-1.4,2.8-0.3C301.9,173.3,300,173.5,302.1,174.2" />

        <path class="st0 map-location" data-location="Nunavut" title="Nunavut"
              d="M307.1,39.7c0.2,1.4-0.9,3.1,0.5,5c1.4,1.9,1.9,0.5,2.1-1.6c0.2-2.1,0.3-1,1.9-1.4c1.6-0.3,0.2,0.9,2.3,1.9
 c2.1,1,1.4-0.3,2.8-1c1.4-0.7,1,0.5,1.6,2.3c0.5,1.7-0.5,1.4-2.4,1.2c-1.9-0.2-1.2,0.5-2.4,1.7c-1.2,1.2,1.2,1,2.8,0.3
 c1.6-0.7,1.9-0.3,3.3-0.2c1.4,0.2,1.4-0.3,2.9-1.2c1.6-0.9-0.5-2.3,0-3.6c0.5-1.4,1.9-1,1.7-2.9s0-0.9,1.2-3.1
 c1.2-2.3,3.8,0.3,3.8,0.3s0.2,1.7-1.9,4.3c-2.1,2.6,0.5,0.7,1.6,2.3c1,1.6,0.2,1.4-0.2,3.1c-0.4,1.7-1,1-2.8,2.3
 c-1.7,1.2-1.2,0.9-3.6,2.6c-2.4,1.7,0.5,0.7,1,1.6c0.5,0.9,0,1.2,0.2,2.4c0.2,1.2,0.9,1.2,3.5,2.6c2.6,1.4,1,1.6,0.7,2.8
 c-0.3,1.2-0.9,0-2.6,0.7c-1.7,0.7-1.2,0.2-3.1-0.3c-1.9-0.5-0.7-1.4-0.7-4.3s-1.2-2.3-3.5-2.8c-2.3-0.5-1.6,1-2.1,2.8
 c-0.5,1.7,1.6,1.6,2.8,3.1s0,1.6,0.3,3c0.3,1.4,0.7,1.2,2.9,3.8c2.3,2.6,1.7-0.5,4-1.2c2.3-0.7,0.2,3.1,0.2,5.2
 c0,2.1,0.2,1.4-1.9,1.7c-2.1,0.3-2.4-0.9-3.3,0.3c-0.9,1.2-0.2,2.3,2.4,3.5c2.6,1.2,1.7-0.9,4,0.9c2.3,1.7,3,2.9,3.8,3.8
 c0.9,0.9,2.4,1.9,4.2,1.7c1.7-0.2,1.2-3.6,1.2-4.5c0-0.9-0.5-0.5-1.2-2.8c-0.7-2.3,0,0,1.4-1.6c1.4-1.6-0.3-2.8,0-4
 c0.3-1.2,0.5,0.3,0.3-2.6c-0.2-2.9,0,0-0.9-1.6c-0.9-1.6-2.4-2.1-3.8-2.3c-1.4-0.2-0.7-0.5-0.5-3.3c0.2-2.8,0-1,0-2.3
 s0.5-0.2,2.6-0.5c2.1-0.3,2.4,0,2.8-0.5c0.3-0.5-1.7-2.6-0.5-4c1.2-1.4,0-0.9,0.7-1.9c0.7-1,1.4,0,2.4-0.2c1-0.2,0.9-2.8,0.3-3.5
 c-0.5-0.7-1-3.8-0.2-4c0.9-0.2,1.6-0.3,1.6-0.9c0-0.5,1.7-3.8,1-6.1c-0.7-2.3-1.2-0.5-2.4-0.5c-1.2,0-1.2-2.1-1-3
 c0.2-0.9,0-1,0-3.3c0-2.3,0.7,0,1.6-0.5c0.9-0.5,0-1.4,0.5-2.6c0.5-1.2,1,0,2.3,0c1.2,0,0.7-0.9,0.9-2.8c0.2-1.9,1-1.6,2.4-1.7
 c1.4-0.2,0.2-1.2-0.7-3.3c0,0-0.5-1-0.7-1.9c-0.2-0.9-1.6,0.3-2.9,0.7c-1.4,0.3-0.9,0-2.3-0.2c-1.4-0.2-1.4,0-2.6,0
 c-1.2,0-0.3,0.5-1.2,2.1c-0.9,1.6-1.2,0.9-2.1,0.9h-0.9c0,0-0.2-0.5-0.2-1.4c0-0.9-1.7-0.5-2.3,0.9c-0.5,1.4-0.3,1.4-1.9,2.8
 c-1.6,1.4-0.3-0.2-0.5-0.7c-0.2-0.5-0.9-1.6-3.5-1c-2.6,0.5,1.2,1.4,2.4,3.5s-0.7,1.4-1.2,2.6c-0.5,1.2-1.9,1-2.9,1.4
 c-1,0.3-0.7-1.2-3.3-3.3c-2.6-2.1-1.2,1.7-1.7,3.1c-0.5,1.4,0.2,1.2,2.6,2.9c2.4,1.7,1,0.9,0.9,3.1c-0.2,2.3-0.3,0.7-1.7,1.2
 c-1.4,0.5-1,0.2-2.6,0.7c-1.6,0.5-1-1.7-2.8-1.7c-1.7,0-1,1.4-1.9,2.3c-0.9,0.9-2.8-1-3.8-1c-1,0-2.6,0.7-2.9,1.6
 C305.4,38.5,307,38.3,307.1,39.7" />

        <path class="st0 map-location" data-location="Nunavut" title="Nunavut"
              d="M296.7,54.5c-0.9,1,0.5,0.9,2.3,2.1c1.7,1.2,1.2,1.4,0.7,3c-0.5,1.6-2.6,2.8-2.6,2.8s-0.2,2.1,2.1,2.4
 c2.3,0.3,2.4-1.7,3.5-1.2c1,0.5,0,2.4,2.1,2.8c2.1,0.3,0.7,0.5,0.9,3.5c0.2,2.9-1.2,0.5-3.8-0.5c-2.6-1-0.7,2.1-0.7,2.1
 s2.6,2.1,1.7,5c-0.9,2.9,1,3.6,2.3,3.6c1.2,0,1-3,1.7-3c0.7,0,2.6-1.9,2.6-2.8c0-0.9,0.9-3.3,2.1-6.1c1.2-2.8,1.9,0,3.8-0.5
 c1.9-0.5,0.7-0.3,0.7-1.2c0-0.9-0.7-0.5-2.6-0.5c-1.9,0-0.9,0-2.6-0.9c-1.7-0.9,0-0.5,0-2.1c0-1.6-0.7-2.3-1.9-4.9
 c-1.2-2.6-1-0.3-2.3-0.7c-1.2-0.3-1-1-1.9-2.8c-0.9-1.7,0,0-2.3-1.6c-2.3-1.6-0.2-2.4-0.3-3.6c-0.2-1.2-0.3-1.9-1.2-2.3
 c0,0-2.1-0.9-3.1,0.3c-1,1.2-1.2,1.6-1,2.8c0.2,1.2,0.5,0.5,1.9,1.4c1.4,0.9,0.3,0.7,0.2,1.6C298.6,54.1,297.6,53.4,296.7,54.5" />

        <path class="st0 map-location" data-location="Nunavut" title="Nunavut"
              d="M317.2,90.6c-1-0.3,0,0-1.4-0.3c-1.4-0.3-1.6,0.7-2.6,1.6c-1,0.9-0.3,1.2,0.7,2.6c1,1.4,1,0.3,5,1.2
 c4,0.9,0.5,0.7,1.9,1.7c1.4,1,1.4-0.2,1.9-0.7c0.5-0.5,0.3-1,0.9-1.9c0.5-0.9,0.5-0.2,2.1,0.2c1.6,0.3,1.2,0,2.4-0.5
 c1.2-0.5-0.2-1.4-0.3-2.6c-0.2-1.2,0.3-0.9,1.7-1.6c1.4-0.7,0.9,0.9,2.6,1.4c1.7,0.5,0.9,1,2.4,2.8c1.6,1.7,2.1-0.3,2.8-0.9
 c0.7-0.5,0.7-1.4,0.7-3.1c0,0-0.5-0.7-3.3-1.2c-2.8-0.5,0,0,0-1.2c0-1.2-0.3-0.2-1.4-0.2c-1,0-1,0.2-3.3-0.9c-2.3-1-1.2,0-2.3-1.6
 c-1-1.6-1.6,0-3.8,1.2c-2.3,1.2-1,0.5-2.1-0.9c-1-1.4,0.2-1-0.9-1c-1,0-1.7,0-2.3-1.2c-0.5-1.2-0.5-1.2-2.1-1.9
 c-1.6-0.7-0.9,4.2,0.7,4.3c1.6,0.2,3.6,1.7,2.3,2.4c-1.4,0.7,0,0.7-0.5,2.3C318.6,92.1,318.3,90.9,317.2,90.6" />

        <path class="st0 map-location" data-location="Nunavut" title="Nunavut"
              d="M312.9,118.2c0,0,1.6-0.3,2.1-2.9c0.1-0.4,0.1-0.6,0.2-0.8c0,0,0,0,0,0c-0.1,0.2-0.1,0.5-0.1,0.3
 c0-0.1,0-0.2,0.1-0.3c0.1-0.3,0.2-0.6,0,0c0.3-0.1,1-0.1,2.4-0.1c2.1,0,0.5,0.3-0.3,1.9c-0.9,1.6,0,0.7,1.6,1.9
 c1.6,1.2,1.9,0.7,2.4-0.2c0.5-0.9,0.3-0.2,1-0.2s0.7,0.2,1.9-0.2c1.2-0.3,0-0.5,0.5-2.3c0.5-1.7,0.9-0.2,2.1-0.5
 c1.2-0.3,0.2,0.7,0.2,0.7s0.2,1.2,1.7,2.1c1.6,0.9,1-0.3,3.5-1.6c2.4-1.2,0-1-1-1.4c-1-0.3-1-2.1-1-2.1s1.2-0.9,2.4-0.2
 c1.2,0.7,0.5,0.7,2.8,1.7c2.3,1,1.4-0.2,1.9-0.2c0.5,0,2.4,0,3.1-1.4c0.7-1.4-1.2-1.2-1.4-2.4c-0.2-1.2,0.2-1,0.2-1.9
 c0-0.9,0.2-1.6-0.2-2.9c-0.3-1.4-2.6-1-3.5-1.4c-0.9-0.3-0.5-1-2.6-1l-0.2-0.3c0,0-1.4,1.4-2.6,1.6c-1.2,0.2,0,0.5-0.3,1.2
 c-0.3,0.7-1,0.5-2.3,1.2c-1.2,0.7-1.2,0.9-2.3,1.9c-1,1,0.2,1,0.2,2.3c0,1.2,0,0.9-4.2,0.5c-4.2-0.3-0.5-0.2-1.2-0.7
 c-0.7-0.5-0.5-0.2-2.3-0.3c-1.7-0.2-0.7,0.3-2.8,0.3c-2.1,0-0.5-0.2-1.7-0.5c-1.2-0.3-0.7,0-1.9-1.7c-1.2-1.7,0-0.7-0.2-1.6
 c-0.2-0.9-1.2-0.3-2.6-0.3c-1.4,0-1.2,0.7-1.2,0.7l-0.5,2.3c-0.5,2.3,0,0-0.3,0.7c-0.3,0.7-0.2,0.3-0.2,1.4c0,1-0.2,0.7,0,2.6
 c0.2,1.9,0.2,0.5,1.7,1c1.6,0.5,0.5,0,1.7-0.2c1.2-0.2,0.5,0.5,1.4,1.6C312,117.5,312.9,118.2,312.9,118.2" />

        <path class="st0 map-location" data-location="Nunavut" title="Nunavut"
              d="M315.1,114.4C315.1,114.4,315.1,114.4,315.1,114.4C315.2,113.8,315.2,114.1,315.1,114.4" />

        <path class="st0 map-location" data-location="Nunavut" title="Nunavut"
              d="M342.5,126.1c-1.9,1.9,0,0,1.7,1.2c1.7,1.2,0.5,1.2,1.9,3.3c1.4,2.1,1,1,3.1,1c2.1,0-0.2-1.7-0.3-3.3
 c-0.2-1.6,1-0.2,4.5,0c3.5,0.2,1.6,0,2.8-0.7c1.2-0.7,0.2-0.9-0.2-1.7c-0.3-0.9-1-0.2-2.1-0.3c-1-0.2-1-0.5-1.6-1.9
 c-0.5-1.4-0.9-0.7-2.6-1.4c0,0-1.2,1.9-2.4,1.9c-1.2,0-0.5,0-1.7-0.3C344.5,123.5,344.5,124.2,342.5,126.1" />

        <path class="st1 map-location" data-location="Northwest Territories" title="Northwest Territories"
              d="M232.5,91.8c2.9-1.6,1.6-0.5,2.9-2.8c1.4-2.3,1.9-2.3,2.6-2.3c0.7,0,1-1.2,1-1.2c1,0.5,0.7,1,0.7,2.1
 c0,1,0.7,2.3,2.6,1.7c1.9-0.5,1.6,0.5,1.6-2.4c0-3,1.6-2.3-0.7-4c-2.3-1.7-2.3-2.3-3.8-1.4c-1.6,0.9-3.3-0.7-4,1.7
 c-0.7,2.4-2.9,4-2.9,4s-4.2-0.2-3.3,1.6C230.1,90.6,229.6,93.3,232.5,91.8" />

        <path class="st0 map-location" data-location="Nunavut" title="Nunavut"
              d="M374.5,187.1c1.2,2.1,0.9,0.7,2.1,0.5c1.2-0.2,0.7-1,2.1-1c1.4,0,1.2-0.7,1.2-1.9s0-2.6,0.3-4
 c0.3-1.4-0.5-1-1.4-2.1c-0.9-1,0-2.1-0.7-2.6l-2.8,1.4l-3,1c0,0-0.9,1.4-2.4,3.6c-1.6,2.3,0,0,3.5,1.2
 C376.9,184.4,373.3,185,374.5,187.1" />

        <path class="st0 map-location" data-location="Nunavut" title="Nunavut"
              d="M379.3,216c0.9,0.7,0.9,1.2,2.4,2.3c1.6,1,1.6,0,3-1.4c1.4-1.4,0.9-0.5,2.4-1.4c1.6-0.9,0.9-0.9,0.7-2.3
 c-0.2-1.4,0-1.4,0-3c0-1.6,0-0.9-0.9-0.9c-0.9,0-1.4-0.2-1.4-1.6s-0.9-0.5-2.3-0.7l-0.5,0.7c0,0-1,0-2.3,0.7
 c-1.2,0.7,0.2,0.5,0.5,2.1c0.3,1.6,0,0.5-1.6,0.7c-1.6,0.2-0.3,0.9-0.9,2.1C378.1,214.6,378.5,215.3,379.3,216" />

        <path class="st1 map-location" data-location="Newfoundland and Labrador" title="Newfoundland and Labrador"
              d="M586.9,307.3c-1.4-0.1-0.4-2-0.5-3.2c-0.1-1.2-0.3-0.8-2-1.1c-1.8-0.3-1.6-0.3-2.4-0.5
 c-0.8-0.3-0.4-1.1-0.4-1.8c0-0.7,0-0.7,0.5-2.3c0.5-1.6,0.8-1.1-0.9-3.2c-1.8-2.2-0.4,0.7-1.9,1.9c-1.5,1.2-1.5,0.9-1.5,2.6
 c0,1.6,0,1.1-1.2,2.2c-1.2,1.1-0.7,1.6-0.7,2.2c0,0.5,0.4,0.9-0.7,2.4c-1.1,1.5-0.7,0.1-3-0.5c-2.3-0.7,0-0.4-0.3-1.2
 c-0.3-0.8-1.5-0.4-2.6,0.1c-1.1,0.5-1.9,0-2.8-0.4c-0.9-0.4-1.6-0.7-2.3-0.1c-0.7,0.5,0.1,1.1-1.1,2.8c-1.2,1.8-1.1-0.1-2.8-0.1
 c-1.8,0-0.4-0.9-0.4-1.9c0-0.9-0.7-0.7-1.5-1.8c-0.8-1.1,0-1.1-1-3.1c-0.9-2-0.5-1.2,0.1-1.6c0.7-0.4,0.4-1.9,0.1-3.2
 c-0.3-1.4,0-2-0.4-2.7c-0.4-0.7-0.4-3.5-0.4-3.5s-1.4-1.2-2.8-1.1c0,0-0.7,2.2-0.7,3.9c0,1.8-0.4,2-0.4,2.4c0,0.4,0.5,0.7,1.2,2.2
 c0.7,1.5-0.3,0.7-0.4,1.6c-0.1,0.9-0.3,0.8-0.5,3.1c-0.3,2.3,0.5,1.6,1.2,2.3c0.7,0.7,0.9,1.1,1.4,1.6c0.4,0.5,0,1.1,0,1.9
 c0,0.8,0.4,1.8,0.4,1.8h0.5c0.5,0,0.5,0.5,1.2,0.9c0.7,0.4,0.3,0.5,0.3,0.9v1.2c0,0,0.4,0.8,0.4,1.2c0,0.4,0.4,1.4,0.4,1.4
 s0.7,1.2,0.8,1.8c0.1,0.5-0.1,0.5-0.4,0.9c-0.3,0.4-1.2,0-1.2,0s-0.8,0.9-0.8,1.5c0,0.5,0.3,0.4,1.2,1.6c0.9,1.2,0.7,0,1.1,0
 c0.4,0,1.2,0.7,1.6,1.1c0.4,0.4,0.1,0.7,0.1,1.6c0,0.9-1.8,2.3-1.8,2.3l-0.3,3.3l-0.4,4.2l2.6,0.5c0,0,2.7-2.7,4.1-4.2
 c1.4-1.5,1.5-1.9,3.5-3.9c2-2,3.7-1.8,4.9-2.4c1.2-0.7,2.3-1.6,3-2.4c0.7-0.8,0.4-2.3,0.4-3.4c0-1.1,0.3-1.2,2.7-2.3
 c2.4-1.1,0.4,0.7,2.2,1.2c1.8,0.5,2.3-1.1,3.1-2c0.8-0.9,3-0.8,3-2.2c0-1.4,0.4-1.1,0.5-3.5C589.1,305.7,588.3,307.4,586.9,307.3" />

        <path class="st2 map-location" data-location="Nova Scotia" title="Nova Scotia" d="M550.4,364.6c-0.5-0.1-0.8,0-2,0.5c-1.2,0.5-1.5,1.4-1.9,1.4c-0.4,0-0.9,0.8-1.1,1.5c-0.1,0.7-2.2,1.2-2.2,1.2
 s-1.9,0.1-2.8,0.3c-0.9,0.1-2.6,0.8-3.1,1.2c-0.5,0.4-1.5,0-2.2-0.3c-0.7-0.3-1.8-0.4-2.6,0.5c-0.8,0.9,0.1,2.3,0.8,3.2
 c0.7,0.9,2.4-0.3,3.1-0.7c0.7-0.4,2-1.5,2-1.5s1.8,0.3,2.6,1.1c0.8,0.8-0.4,2.2-0.5,2.6c-0.1,0.4-2.8,2.3-3.1,3.1
 c-0.3,0.8-1.8,1.5-2.3,1.5c-0.5,0-2,0.7-3.4,1.9c-1.4,1.2-1.1,2.6-1.5,3.3c-0.4,0.7-2,2.7-2.3,3.5c-0.3,0.8-0.1,7.7-0.1,7.7
 s2.8,0.5,3.4,0.9c0.5,0.4,1.5,0.5,2.6,0.3c1.1-0.3,1.2-2.2,1.4-2.8c0.1-0.7,2-2.6,2-2.6l0.4-2c0,0,0-2.3,0.1-3.9
 c0.1-1.6-0.4-2.2-0.4-2.7c0-0.5,6-6.1,6-6.1s2.7-2.2,3.7-2.7c0.9-0.5,0.3-0.7,0.4-1.2c0.1-0.5,1.9-0.5,1.9-0.5s1.4-0.3,1.6-0.8
 c0.3-0.5-0.1-1.2-0.3-2.3c-0.1-1.1-0.1-1.6-0.1-2c0-0.4,1.4-1.5,1.8-1.5c0.4,0,1.5-0.9,1-1.6C553.1,365,550.9,364.8,550.4,364.6" />

        <path class="st3 map-location" data-location="Prince Edward Island" title="Prince Edward Island" d="M533.8,360c-0.4-0.8-1.5,0.3-3,1.5c-1.5,1.2-0.1,0.7,0.4,1.1c0.5,0.4,1.2,0.9,1.8,2.2c0.5,1.2,0.3,0.9,1.1,1.9
 c0.8,0.9,1.5,0.3,1.8-0.5c0.3-0.8,0.4-1.4,0.5-1.9c0.1-0.5,0.9-0.5,1.6-0.7c0.7-0.1,1.4,0.3,1.9,0.8c0.5,0.5,2,0.3,2-0.3
 c0-0.5,0.8-1.4,1.2-1.6c0.4-0.3,0.7-0.5,1.5-1.2c0.8-0.7-0.7-0.9-1.9-1.5s-0.4-1.4-0.4-1.4s-1.5,0.5-1.4,1.5
 c0.1,0.9-1.5,0.4-2.6,1.1c0,0-2.6,0.1-3.8,0.1C533.4,361.1,534.2,360.8,533.8,360" />

        <path class="st0 map-location" data-location="British Columbia" title="British Columbia"
              d="M99.5,361.4c-0.5-0.2-0.2-2.3-0.2-2.3s-0.2-2-0.2-3.2s0-1.8-0.5-2c0,0-1.5,0.2-1.5,1.5s-0.3,0.6-1.5,0.8
 c-1.2,0.2-0.9-0.3-2.1-0.3c-1.2,0-1.1,0.9-1.4,2.3c-0.3,1.4,0.8,0.3,2.4,0.6c1.7,0.3,0.6,1.8,0.6,1.8l2,0.9c2,0.9,0,0.6,0,2
 s2,0.5,2,0.5s1.4-1.5,1.7-2.1C101.2,361.2,100,361.5,99.5,361.4" />

        <path class="st0 map-location" data-location="British Columbia" title="British Columbia"
              d="M94.9,353.3c0.8-0.9,1.4-0.6,0.9-2.6c-0.5-2-0.8-2.4-0.8-3.8v-3.7c0-0.6,0.6-2.1-0.2-2.9
 c-0.8-0.8-1.7-1.8-1.7-1.8s-2.1-2-2.4-2.4c-0.3-0.5-2-1.1-2.1-2c-0.2-0.9,0-1.5-0.9-2c-0.9-0.5-1.8-0.6-2.4-0.2
 c-0.6,0.5-2.1,1.4-1.4,1.8c0.8,0.5,2.6-0.2,2.6,0.8c0,0.9-0.6,0.3,0,1.8c0.6,1.5,1.2,1.5,1.2,1.5s0.2,1.2-0.3,1.5
 c-0.5,0.3,1.2,3.5,1.2,4c0,0.5,0,0.5-0.5,1.4c-0.5,0.9-0.8,1.2,0,1.2c0.8,0,1.2-0.5,1.2,0c0,0.5-0.9-0.6,0,0.5
 c0.9,1.1,1.4,1.1,1.4,1.1s0.6,0.2,0.9,0.8c0.3,0.6,0.2-0.3,0.3,0.6c0.2,0.9,0.3,1.4-0.2,1.7c-0.5,0.3-2.4-0.9-1.5,0.8
 c0.9,1.7,2,1.7,2,1.7L94.9,353.3z" />

        <path class="st0 map-location" data-location="Nunavut" title="Nunavut" d="M293.6,96.3c0,0,1.2,0.8,2,1.1c0.8,0.3,0.8,0.8,0.8,1.5c0,0.8-1.8,0.5,0,0.8c1.8,0.3,2.3,0.3,2.3,0.3
 s-0.6,1.2,0.6,0.9c1.2-0.3,1.5,0,1.7-1.1c0.2-1.1,0.6-1.2,0-2c-0.6-0.8-0.9-1.4-1.5-1.4c-0.6,0-0.8,0.9-1.5-0.3
 c-0.8-1.2-0.6-1.7-1.2-1.8c-0.6-0.2-1.5,0.2-1.5,0.2C294.2,94.5,293.6,96.3,293.6,96.3" />

        <path class="st0 map-location" data-location="Nunavut" title="Nunavut"
              d="M290.8,78.1c0.9,0,2,0.9,2,1.8c0,0.9-1.4,1.1,0,1.8c1.4,0.8,1.2,1.5,1.8,0.8c0.6-0.8,0.9-1.2,0.9-2.3
 c0-1.1,0.3-0.9-0.8-2c-1.1-1.1-1.4-1.2-2.1-2c-0.8-0.8-1.8-0.5-1.8-0.5v0.5C290.2,77.1,289.9,78.1,290.8,78.1" />

        <path class="st0 map-location" data-location="Nunavut" title="Nunavut"
              d="M280.3,77.2c1.2-0.2,1.1,0.9,1.1,0.9s0.8,0.9,1.2,1.2c0.5,0.3,0.8,0.6,1.2,1.2c0.5,0.6,0,0.8,0,0.8
 s0,1.7,0.8,2.4c0.8,0.8,1.2,0.2,2.1,0.2c0.9,0,0.8-1.4,0.8-1.4l-0.2-1.7c0,0-1.2-0.3-1.7-0.6c-0.5-0.3,0-2.4,0-2.9
 c0-0.5-0.5-1.7-0.8-2.3c-0.3-0.6-2.4-1.1-2.4-1.1l-2.3-0.8c0,0-1.8,1.7-2,2.1c-0.2,0.5,0,1.1,0,1.5
 C278.2,77.4,279.1,77.4,280.3,77.2" />

        <path class="st0 map-location" data-location="Nunavut" title="Nunavut"
              d="M298.8,110.9c0,0-1.2,0.5-2.1,0.5c-0.9,0-0.8,1.4-0.9,2.6c-0.2,1.2,0,1.5,0.5,1.8c0.5,0.3,1.5,1.1,2,2
 c0.5,0.9,1.8,1.5,2.9,1.4c1.1-0.2,0.1-1.2,0.5-2.4c0.3-1.2-1.2-1.2-1.2-1.2v-3.4C300.3,112.1,300,110.9,298.8,110.9" />

        <path class="st0 map-location" data-location="Nunavut" title="Nunavut"
              d="M286.4,102.1c-0.3,0.5-0.5,0.6-0.6,1.5c-0.2,0.9-0.2,0.8-0.2,2.1c0,1.4,1.2,1.5,1.7,2.1c0.5,0.6,0,0.8-0.2,1.8
 c-0.2,1.1-1.1,0.2-1.8,0.2c-0.8,0-0.6,0.8-1.1,1.7c-0.5,0.9,0,1.2,1.2,2.1c1.2,0.9,1.2,0,2-0.5c0.8-0.5,0.5-1.7,0.5-1.7l0.5-1.5
 l0.5-1.2c0,0-0.2-1.1-0.2-1.7c0-0.6,0.5-1.2,0.3-2.3c-0.2-1.1,0.2-1.5,0.2-2.1c0-0.6-0.6-1.4-1.2-1.4
 C287.9,101.3,286.7,101.6,286.4,102.1" />

        <path class="st1 map-location" data-location="Northwest Territories" title="Northwest Territories"
              d="M254.9,83.8c0,0.8,0.3,0.6,0.6,1.2c0.3,0.6,0.9,0,1.8,0c0.9,0,0.8,0,1.4-0.2c0.6-0.2,0.3-0.6,0.3-1.5
 c0-0.9-0.2-0.6-0.2-1.5s0.5-0.8,0.5-1.2c0-0.5-1.2-0.9-1.8-1.1c0,0-0.6,0-1.1,0.8c-0.5,0.8-0.9,0.2-1.5,0.5c-0.6,0.3-0.2,0.6,0,1.7
 C255,83.5,254.9,83,254.9,83.8" />

        <path class="st4 map-location" data-location="Nunavut" title="Nunavut"
              d="M259.4,96.1L259.4,96.1C259.5,96.1,259.4,96.1,259.4,96.1" />

        <path class="st0 map-location" data-location="Nunavut" title="Nunavut"
              d="M260,99.6c0.3,0.6-0.5,1.1,1.4,0.9c1.8-0.2,1.4,1.4,1.8-0.2c0.5-1.5,1.2-1.2,0.5-2.1c-0.8-0.9-2.3-2.1-2.3-2.1
 l-0.9-0.6l0.2,0.5l-1.2,0.1c0,0.1,0.1,0.3,0.1,1.2C259.6,98.9,259.7,99,260,99.6" />

        <path class="st3 map-location" data-location="Yukon" title="Yukon"
              d="M151.6,237.7l-10.5-4.5l2.6-5.6l-3.8-4.1l0.4-6l-2.6-1.5l0.8-8.3l2.6-6.8l0.8-10.9l-2.3-0.8l-2.3-7.5l6-5.3
 l2.3-4.9l-4.1-3l0.8-3l4.1-7.9l-5.3-2.6l-3.8-2.6l3.8-1.9l0.8-4.5l5.5-7.2c-0.8-0.7-1.7-1.5-2-2c-0.8-1.1-2.6-3.4-2.6-4
 c0-0.6-1.5-5.5-1.5-5.5l-2.1-6.6l-63.4,76.6l6.4,5.3l2,3.2l1.3,2.8l-0.2,0c3.9,3.2,27,21.1,67,39.5L151.6,237.7z" />

        <path class="st5 map-location" data-location="Alberta" title="Alberta"
              d="M223.3,272.3c-13.5-3-29.2-7.3-45.4-13.5c-2.3-0.9-4.5-1.8-6.7-2.7l-26.4,64.8l7.9,9v6l15.4,29l0.4,5.3
 l-2.6,6.4l3.9,5.6c8.5,2.3,18,4.5,28.6,6.8L223.3,272.3z" />

        <path class="st0 map-location" data-location="British Columbia" title="British Columbia"
              d="M168.5,370.2l-0.4-5.3l-15.4-29v-6l-7.9-9l26.4-64.8c-6.7-2.7-13.1-5.5-19-8.2c-40-18.4-63.1-36.3-67-39.5
 l-3.9,0.6l0.6,5.1l0.8,6.4l3,0.4c0,0,3.4-3.8,5.1-4c1.7-0.2,5.5,2.8,5.5,2.8l-0.9,7l0.4,5.3l1.7,2.6l-1.1,5.8l0.8,7l-2.1,8.8
 l1.1,4.9l1.9,4.7l2.4,3.8l-0.6,2.4l-2.4,2.3l0.2,2.8l0.9,1.9l-6.8,8.5l-2.6,6.8l0.9,2.3l5.1-2.6l1.5,2.6c0,0-4.3,7.5-2.6,11.1
 c1.7,3.6,3.6,5.1,3.6,5.1l1.9,2.6l-0.4,2.4h-4.9c0,0,4,4,4,4.9c0,0.9-7.9-1.1-8.1,0c-0.2,1.1,3,4.1,5.1,5.5c2.1,1.3,5.8,6,5.8,6
 l4,1.5v1.9l-2.1,0.9v0.9l3.8,0.8l-1.5,2.4c0,0-4,4.3-2.8,4.9c1.1,0.6,2.6-3,4.1-2.3c1.5,0.8-0.6,1.5-0.2,3.6c0.4,2.1,1.7,2.8,3.2,4
 c1.5,1.1,2.3,2.1,1.9,3.8c-0.4,1.7-2.8,3.8-2.8,3.8s17.9,10.5,61.4,22l-3.9-5.6L168.5,370.2z" />

        <path class="st2 map-location" data-location="Saskatchewan" title="Saskatchewan"
              d="M223.3,272.3l-25,116.8c0.3,0.1,0.7,0.1,1,0.2c23.1,4.9,43,7.3,59.1,8.3l6.3-119
 C264.8,278.6,247.6,277.6,223.3,272.3" />

        <path class="st1 map-location" data-location="Northwest Territories" title="Northwest Territories"
              d="M264.6,224.1l-24.5-7.9l-1.5-2.6l-3.8-7.9l-11.3-0.4l-7.2-5.3l-3.8-4.1l-1.1-4.1l-7.5-6L192.6,174l3-9l4.1-7.9
 l3.1-0.2c-1.5-1-2.2-1-4.2-1.6c-2.3-0.6-3.6,0-4.9,1.9c-1.3,1.9-2.4,1.7-2.4,1.7s-0.6-4-4.1-3.6c-3.6,0.4-4.1-3.8-4.1-3.8l-0.6-9.8
 l-2.3,0.8c0,0-0.8,3-1.9,3.2c-1.1,0.2-2.8,0-2.8,0l-2.1-2.6l-2.8,0.6l-2.1,2.3l-2.6,0.2l-1.7-2.6l-2.6,0.2l-2.6,3.6
 c0,0-2.1-0.8-4.3-2.4c-2.3-1.7-5.5-4.7-5.5-4.7s-0.9-0.7-1.9-1.6l-5.5,7.2l-0.8,4.5l-3.8,1.9l3.8,2.6l5.3,2.6l-4.1,7.9l-0.8,3
 l4.1,3l-2.3,4.9l-6,5.3l2.3,7.5l2.3,0.8l-0.8,10.9l-2.6,6.8l-0.8,8.3l2.6,1.5l-0.4,6l3.8,4.1l-2.6,5.6l10.5,4.5l0.6,10.2
 c6,2.7,12.3,5.5,19,8.2c2.2,0.9,4.4,1.8,6.7,2.7c16.2,6.2,31.9,10.5,45.4,13.5c24.3,5.3,41.4,6.3,41.4,6.3l3.2-51.1L264.6,224.1z" />

        <path class="st0 map-location" data-location="Nunavut" title="Nunavut"
              d="M195.7,165l-3,9l11.3,11.7l7.5,6l1.1,4.1l3.8,4.1l7.2,5.3l11.3,0.4l3.8,7.9l1.5,2.6l24.5,7.9l3.4,3.4
 l-3.2,51.1h36.5l1.5-1.5l-0.2-5.1l2.3-1.9l0.6-3l1.5-6.4l1.3-1.1l-0.6-2.8l3.4-0.8l1.3-1.9l0.8-4l1.1-3.4l5.5-0.6l0.4-5.3l-4-0.6
 l-3.6-0.6l-1.3-2.6h-4.5l-1.1-1.9l0.4-3l2.8,0.9l2.8,1.7l8.3,1.1l0.8,1.1l2.8-0.6l0.8-4.7h6.2l4.1-8.3l0.4-2.8l-6.6-1.3l-3.8-3
 l-5.3-2.3H316v-2.4h9.4l0.8,2.4l5.6,2.3h2.3l2.3-2.4l2.6-4.9l-3.6-2.1c0,0-2.3-2.4,0.4-3.2c2.6-0.8,3.2-0.4,4-1.1
 c0.8-0.8-0.2-2.4,1.7-4c1.9-1.5,4-3,5.5-1.9c1.5,1.1,2.1,3.6,2.3,4.1c0.2,0.6,2.1,1.5,2.3,0.6c0.2-0.9,4.7-5.6,4.3-7.9
 c-0.4-2.3-1.7-4.5-1.7-4.5s-4.3-3.4-4.3-4.1c0-0.8-1.9-3.8-1.9-3.8s0.9,0.8,2.8-2.3c1.9-3-0.2-5.1-1.1-5.6
 c-0.9-0.6-3.2-0.2-4.1-1.1c-0.9-0.9-4.5-4-6.6-2.6c-2.1,1.3-4.3,1.1-1.9,3.2c2.4,2.1,4.3,3.2,3.4,4.5c-0.9,1.3-3.2,1.7-3.2,3.4
 c0,1.7,0.6,7.7,0.9,8.7c0.4,0.9-1.5,3.6-1.5,4.7c0,1.1-0.8,3.6-0.8,3.6l-2.6,2.6l-3-1.7l-0.8-3l-3.8-2.6l-0.4-8.3l0.6-2.3l-3.4-3.4
 l-0.6,4.1l0.2,3.2l-1.7,2.6l-1.9,0.2l-2.4-1.9l0.4-5.6l-2.6-2.1c0,0,1.3-1.3-0.8-3c-2.1-1.7-5.1-1.5-5.1-1.5s-1.7,1.7-1.3,2.8
 c0.4,1.1-0.9,3.8-0.9,3.8s0.6,0,0.9,1.7c0.4,1.7,2.1,2.3,2.1,2.3l-1.9,1.7l-3,0.6c0,0-0.6,4.1-1.7,4.7c-1.1,0.6-3.4,0.2-3.4,1.3
 c0,1.1,0.8,2.8,0.9,4.3c0.2,1.5,1.7,3.6,0.8,4.5c-0.9,0.9-2.4,4.7-4.7,3.4c-2.3-1.3-2.1-3-2.3-5.1c-0.2-2.1-1.5-3.8-2.8-3.8
 c-1.3,0-2.4,1.9-3.4,0.6c-0.9-1.3,0.6-1.9-1.5-1.9c-2.1,0-3,1.1-4,0.6c-0.9-0.6-1.3-1.5-3.2-1.5c-1.9,0-3.2,0-4.7,1.3
 c-1.5,1.3-1.7,0.4-4.1-0.9c-2.4-1.3-6.6-3.4-6.6-3.4s-2.8-1.9-5.1-3.6c-2.3-1.7-3.6-1.1-4,0.4c-0.4,1.5-3.6,0.6-4.9,1.1
 c-1.3,0.6-0.8,3.2,0.2,3.8c0.9,0.6,1.1,3.6,1.1,5.5c0,1.9,0,3.6-1.5,4c-1.5,0.4-4.1,2.1-4.9,0.6c-0.8-1.5-3.6-5.1-3.6-5.1l2.6-2.3
 c0,0-3.8-5.1-4-5.6c-0.2-0.6-12.6-1.1-12.6-1.1s-2.6-0.9-4.7-2.4c-2.1-1.5-3.8-0.8-4.3-2.4c-0.6-1.7,0-3.8,1.1-4.9
 c1.1-1.1,3.8-0.6,4-2.1c0.2-1.5-1.7-4.5-3.2-4.7c-1.5-0.2-4.7-1.1-4.7-1.1s-4.3-5.1-6-6.6c-1.7-1.5-4.3-2.4-4.3-2.4
 s0.9-4.3-0.9-5.6c-0.2-0.1-0.3-0.2-0.5-0.3l-3.1,0.2L195.7,165z" />

        <path class="st1 map-location" data-location="Newfoundland and Labrador" title="Newfoundland and Labrador"
              d="M477.3,255.7l1.9,3.8l2.3,6.8h2.6v4.1l4.9,1.1l3.8,3l1.5,9.8l-11.7,4.1l-7.2-1.9l1.1,4.5l-5.6,0.4l4.9,3.4
 l-1.1,4.1l4.5,6.4h3.4l1.9,7.2l2.6-0.8v-3.4l3.4,0.8v4.9h5.6l1.5-2.3l5.6,0.4l2.6-0.4v-4.1l-4.9-4.9l1.5-5.6l3.8,3.4l-0.8,3.4
 l1.9,4.1l5.3-1.5l33.9-21.8l0.6,4.1l1.6-1l1.5-5.1l1.5-4.3c0,0-1.7-3-2.8-1.9c-1.1,1.1-3.4,1.1-3.4,1.1l-1.7-2.3l0.6-2.1L542,272
 v-2.6h-5.5l-0.8,4l-3.4,0.2l-0.2-4.5h-2.6l-5.5,4.7c0,0-0.4,6.2-1.3,7.5c-0.9,1.3-0.9,4.9-0.9,4.9l-4.1,1.3l-0.6-3.8
 c0,0-3,0.8-3.2,0c-0.2-0.8-0.6-4-0.6-4l3.2,0.6l3.8-7.5l5.6-9l-5.5,2.3l-3,3l-0.6-2.3c0,0-1.5,3.6-3,3.8c-1.5,0.2-2.1-0.9-2.1-0.9
 l-2.8-0.8c0,0-1.1,2.3-2.1,1.3c-0.9-0.9-3.2-3.6-3.2-3.6l-3.2-1.3h-4.3l-0.6-1.9l-2.3,0.4l-2.6-1.3l-4-0.2l-0.8-2.8l3-1.9l0.6-1.9
 l-5.6-2.1l-1.3-3.2l-3.6,0.2l-0.9,1.7h-3v-1.7l-2.6-0.4c-0.5,1-0.9,1.8-0.9,1.8L477.3,255.7z" />

        <path class="st6 map-location" data-location="Manitoba" title="Manitoba"
              d="M320.5,336.6c6.2-7.1,13.3-19.6,16.4-25.5l-3.8-1.8l-4.1-2.1l-5.1,1.9l-4.5,2.4h-2.1L316,308l-0.8-8.8l-4-5.5
 l-2.4-0.9l-0.4,4.9l-2.4,0.6l-0.4-3.8l-2.8-2.1l-0.2-11.7l-1.3-2.1h-36.5l-6.3,119c29.3,1.9,45.9-0.7,45.9-0.7l0.1-3.7l-1.3-36.3
 C303.2,356.9,312.2,346,320.5,336.6" />

        <path class="st3 map-location" data-location="Ontario" title="Ontario"
              d="M464.5,406.4l-8.7,6h-3.8l-7.5-3.8h-13.2l-5.6-4.5l-15.1-47.2v2.3l-4.3,1.1l-3.4,1.9l-2.6-0.4l2.6-2.4
 l-1.1-2.4l-4-3.4l-4.5-1.7v-1.9l-3.6-2.4l-3.2-0.9l-0.4-7.2l-3.6-9.8v-5.3l-6-1.7l-1.7,2.1l-2.1-1.5l-4.5,1.1l-2.8,1.5l-2.6,1.1
 l-0.4-2.1l1.3-1.5l-2.6-2.3l-6.8-0.6l-4.9-1.7c0,0-2.1,0.2-2.6-0.8c-0.6-0.9-1.7-2.6-1.7-2.6l-3.6-3.4l-4.1-0.8l-0.5-0.3
 c-3.1,5.8-10.2,18.4-16.4,25.5c-8.3,9.4-17.3,20.3-17.3,20.3l1.3,36.3l0-0.1l3.4,1.1l1.3,6.8c0,0,4.9,0.8,5.1,1.5
 c0.2,0.8,0.9,2.4,2.6,1.5c1.7-0.9,5.3-1.5,5.3-1.5s-1.9,1.1,1.5,1.1c3.4,0,5.1,0.6,5.1,0.6l2.3,1.9l3.4,0.4c0,0,3.8-0.9,4.1-0.4
 c0.4,0.6,3,1.5,3,1.5l3-1.1l2.3,0.2c0,0,0.9-3.6,2.6-5.5c1.7-1.9,4.1-6.4,4.1-6.4l7.9-0.4c0,0,1.3,1.5,2.6,1.5
 c1.3,0,2.4-1.5,2.4-1.5s3.2,0,5.1,1.9c1.9,1.9,0.8,6.6,2.3,7.2c1.5,0.6,4.9-0.8,4.9-0.8l2.6,0.2l1.3,3.8l3.4,1.7l0.4,2.8l-1.1,1.3
 l6.8,4.3l10.5,1.3c0,0,2.1,0,3.6-0.4c1.5-0.4,7-0.6,7-0.6s4.9,0.4,6.2,1.5c1.3,1.1,5.6,2.3,5.6,2.3l1.1,3.2c0,0,4,1.1,4,1.9
 c0,0.8-2.8,3.2-2.8,4c0,0.8-0.2,3.4-1.1,3.6c-0.9,0.2-3,0-5.8,0c-2.8,0-3.6,2.1-3.6,3.4c0,1.3-2.4,5.5-1.3,6.2
 c1.1,0.8,2.1,3.6,1.1,5.1c-0.9,1.5-3.6,5.1-3.6,5.1s-1.1,2.4,0.4,3.8c1.5,1.3,0,3.6,1.7,4c1.7,0.4,3.2-0.6,3.8-3
 c0.6-2.4,2.8-4.5,4-4.5c1.1,0,6.2-0.8,6.2-0.8s2.6-3.8,3.6-3.8c0.9,0,3.4-0.6,2.3-2.1c-1.1-1.5-1.7-0.2-2.1-2.6
 c-0.4-2.4-0.2-4.5,0.9-6c1.1-1.5,16.4-9.8,17.5-10.7c1.1-0.9,4.1-0.9,4.1-0.9l11.5-16h2.1l0.9,0.5l-2-4.6H464.5z" />

        <path class="st5 map-location" data-location="New Brunswick" title="New Brunswick"
              d="M502.4,360.4l-3,1.9v6.7c0.1-0.5,0.4-0.8,0.8-0.8c1.7,0,6.6,1.3,8.7,4.7c2.1,3.4,2.3,7.5,4.3,9
 c2.1,1.5,4.7,0.6,5.3,2.4c0.6,1.9,4.1,3.4,6.2,2.6c2.1-0.8-0.4-4,1.1-5.3c1.5-1.3,3.2-0.9,4.3-1.1c1.1-0.2,3-5.3,3.2-6.8
 c0.2-1.5-1.9-4.9-1.9-4.9l-3.8-4l-3-1.5H522c0,0,0-2.3,0.8-3.2c0.8-0.9,0.2-3.6-0.6-4.1c-0.8-0.6-2.4,0-2.4,0.6
 c0,0.6,0.6,3.8-0.8,4c0,0,0.4-0.2-1.1-2.3c-1.5-2.1-3.6-0.8-5.3-0.8c-1.1,0-2.2-0.2-2.8-0.6l-3,4.2L502.4,360.4z" />

        <path class="st6 map-location" data-location="Quebec" title="Quebec"
              d="M546.6,284.7l-33.9,21.8l-5.3,1.5l-1.9-4.1l0.8-3.4l-3.8-3.4l-1.5,5.6l4.9,4.9v4.1l-2.6,0.4l-5.6-0.4l-1.5,2.3
 h-5.6v-4.9l-3.4-0.8v3.4l-2.6,0.8l-1.9-7.2h-3.4l-4.5-6.4l1.1-4.1l-4.9-3.4l5.6-0.4l-1.1-4.5l7.2,1.9l11.7-4.1l-1.5-9.8l-3.8-3
 l-4.9-1.1v-4.1h-2.6l-2.3-6.8l-1.9-3.8l-5.6-3.8c0,0,0.4-0.8,0.9-1.8l-1.4-0.2l0.9-2.4l-4-1.1l-0.4,1.3l-2.4,0.4l-1.7-1.9v-2.6
 l-2.8-0.4c0,0-0.6,7.2,0.2,7.7c0.8,0.6,0.6,6,0.6,6h-3l-3.4,3.2l0.8,4.5l-3.8,0.2l-3.2,1.7l-0.6-7.7l-5.5-0.6l-3.4,4.7l-2.6-0.9
 l0.9-4.1l-1.5-3.4l-0.2-3.4l-4.7-0.8l-0.4-2.1l1.9-0.2l0.8-2.8l-1.9-1.7l-0.2-1.9l-4.9-1.5l-2.6,1.3h-4.9l-2.3-3.2h-2.3l-3-0.2
 l-0.8-2.4l-6-1.1l-1.9,3.8l-7.5,0.2l-9.4,0.2l0.8,5.6l4.3,1.9l0.6,7.7l3.6,5.8h4.9v2.8l-1.9,0.9l0.2,2.6l-1.3,4.5v9.2l9.4,4.7
 l6.2,11.3l3.2,3.8l-1.1,4.1l-3.6,9.6c0,0-8.7,7.9-9.2,7.9c-0.6,0,0.8,2.6,0.8,2.6l3.6,1.9l0.4,4.3l6.8,12.4l2.8,2.1l-0.2,3.4
 l-2.3,3l0.4,2.4l2.8,1.1l-0.6,3l-1.5,0.8l-3.2-2.6l-1.3,0.2v0.9l15.1,47.2l5.6,4.5h13.2l7.5,3.8h3.8l8.7-6h3.4l2,4.6l0.6,0.3
 c0,0,7-4.3,11.1-5.3c4.1-0.9,6.8-2.3,6.8-2.3l5.1-6.8c0,0-1.1-22.8,0.8-25.4c1.9-2.6,1.5,1.1,3.6,0.9c1.5-0.1,1.2-2.3,1.6-3.5v-6.7
 l3-1.9l4.5,0.8l3-4.2c-0.3-0.2-0.4-0.5-0.4-0.9c0-1.1,6.8-3.2,8.1-4.1c1.3-0.9,3.8-5.3,3.8-5.3s1.9-2.3,0.8-3.4
 c-1.1-1.1-3.2,1.3-4.1,0c-0.9-1.3-2.6-4.1-4.3-2.8c-1.7,1.3-9.8,8.8-11.9,11.1c-2.1,2.3-9,12-9,14.5c0,2.4,0.2,5.6-0.9,7.3
 c-1.1,1.7-1.3,5.6-2.8,7.5c-1.5,1.9-4.7,5.5-6.2,4.3c-1.5-1.1,0.9-4.7,2.8-8.7c1.9-4,3-4.5,3-6.4c0-1.9-0.8-9.4-0.8-10.2
 c0-0.8,8.7-12.8,8.7-12.8l1.5-3l0.4-8.1c0,0,4.5-4.1,5.3-4.5c0.8-0.4,13.7-7.2,13.7-7.2l9.6-5.8h2.8l7.9-7.2c0,0,2.8-5.5,2.6-8.7
 c-0.2-3.2-1.5-4.5,0-6.4c1.5-1.9,2.8-0.9,2.8-1.5c0-0.6,2.6-5.3,2.6-5.3l1.4-0.9L546.6,284.7z" />

        <path class="st6 map-location" data-location="Quebec" title="Quebec"
              d="M516.9,330.9c0,0,6.9-3.9,8.7-2.2c1.7,1.7-6.5,4.3-8.2,3.9C515.6,332.2,516.9,330.9,516.9,330.9" />

        <path class="st0 map-location" data-location="Nunavut" title="Nunavut"
              d="M253.7,108.9L253.7,108.9C253.7,109,253.7,108.9,253.7,108.9" />

        <path class="st0 map-location" data-location="Nunavut" title="Nunavut"
              d="M267.9,105c-0.2-1.4-1.6-0.2-1.6-0.2s-0.3,0.5-1.4,1.6c-1,1-1,0-2.4-0.2c-1.4-0.2-0.9,0-1.7,0.5
 c-0.9,0.5-0.7,0-1.6,0.3c-0.9,0.3-0.7,0-2.4,0c-1.7,0-1,0-1.9-0.9c-0.5-0.5-0.7-0.5-1.2-0.7v3.4c0,0,0,0,0,0.1v6
 c0.3-0.1,0-0.2,0.4-0.4c0.5-0.3,1.7-1.7,1.7-1.7s0.3-0.9,1.4-1.7c1-0.9,0.9,0.5,1.7,0c0.9-0.5,1.4,0,3.6,0.7
 c2.3,0.7,0.9,0.7,3.3,1.4c2.4,0.7,1.7-1.4,1.7-1.4s-0.2-2.8,0.5-4.7C268.8,105.1,268.1,106.4,267.9,105" />

        <path class="st0 map-location" data-location="Nunavut" title="Nunavut"
              d="M251.3,102.7c-0.3-1-1-1.2-1.4-2.3c-0.3-1,0.2-1.2,0.5-3.1c0.3-1.9-0.3-0.2-2.3-0.5c-1.9-0.3-1.2-2.1-1.2-2.1
 s-0.3-1.4-1.9-1.4l-1.7,1.4c-1.7,1.4-0.9,1.2,0.9,4.7c1.7,3.5,0,0.7,0.2,1.9c0.2,1.2,0,0.3-0.5,1.2c-0.5,0.9,0,0.5-1.6,0
 c-1.6-0.5-2.9,0.3-3.5,1.4c-0.5,1,0.2,0.5,2.6,1c2.4,0.5,1.6-0.2,2.4-0.3c0.9-0.2,1.2,0,2.8,0c1.6,0,0.9,0.5,1.6,1
 c0.7,0.5,0,0,1.9,1.2c1.9,1.2,1.4,0.5,3.3,1.7c0.2,0.1,0.3,0.2,0.3,0.3v-3.4c-0.4-0.1-0.9-0.3-1.7-0.7
 C249.9,103.8,251.6,103.8,251.3,102.7" />

        <path class="st0 map-location" data-location="Nunavut" title="Nunavut"
              d="M250.7,111.7c2.4,3.6-1.2,0-3.8-0.7c-2.6-0.7-1.4-0.2-3.5,0.9c-2.1,1-0.7,1-0.3,1.7c0.3,0.7,2.6,1,6.1,1.7
 c3.5,0.7,1.4-0.3,3.3-0.3c0.7,0,1,0,1.2-0.1v-6C253.5,109.4,248.7,108.6,250.7,111.7" />

            </g>
        <text transform="matrix(1 0 0 1 271.1343 225.3745)" data-location="Nunavut" class="st7 st8 map-location">Nunavut</text>
        <text transform="matrix(1 0 0 1 434.5264 336.2422)" data-location="Quebec" class="st7 st8 map-location">Quebec</text>
        <text transform="matrix(1 0 0 1 159.0425 223.4307)" data-location="Northwest Territories" class="st7 st8 map-location">Northwest</text>
        <text transform="matrix(1 0 0 1 159.0425 237.8306)" data-location="Northwest Territories" class="st7 st8 map-location">Territories</text>
        <text transform="matrix(1 0 0 1 342.2939 375.9141)" data-location="Ontario" class="st7 st8 map-location">Ontario</text>
        <text transform="matrix(1 0 0 1 102.3784 266.666)" data-location="British Columbia" class="st7 st8 map-location">British</text>
        <text transform="matrix(1 0 0 1 102.3784 281.0664)" data-location="British Columbia" class="st7 st8 map-location">Columbia</text>
        <text transform="matrix(1 0 0 1 160.9023 321.9746)" data-location="Alberta" class="st7 st8 map-location">Alberta</text>
        <text transform="matrix(1 0 0 1 196.5903 363.8428)" data-location="Saskatchewan" class="st7 st8 map-location">Saskatchewan</text>
        <text transform="matrix(1 0 0 1 267.1265 326.2705)" data-location="Manitoba" class="st7 st8 map-location">Manitoba</text>
        <text transform="matrix(1 0 0 1 94.4702 196.4663)" data-location="Yukon" class="st7 st8 map-location">Yukon</text>
        <text transform="matrix(1 0 0 1 506.3223 244.4307)" data-location="Newfoundland and Labrador" class="st7 st8 map-location">Newfoundland</text>
        <text transform="matrix(1 0 0 1 506.3223 258.8301)" data-location="Newfoundland and Labrador" class="st7 st8 map-location">&amp; Labrador</text>
        <text transform="matrix(1 0 0 1 496.9746 411.3027)" data-location="New Brunswick" class="st7 st8 map-location">New</text>
        <text transform="matrix(1 0 0 1 496.9746 425.7021)" data-location="New Brunswick" class="st7 st8 map-location">Brunswick</text>
        <text transform="matrix(1 0 0 1 549.1504 392.1387)" data-location="Nova Scotia" class="st7 st8 map-location">Nova Scotia</text>
        <text transform="matrix(1.1567 0 0 1 536.0898 355.8467)" data-location="Prince Edward Island" class="st7 st9 map-location">P.E.I.</text>
        <line class="st10" x1="515.6" y1="377.2" x2="511.7" y2="398.6" />

        </svg>